<svg version="1.1" xmlns="http://www.w3.org/2000/svg" xmlns:xlink="http://www.w3.org/1999/xlink" width="24" height="24" viewBox="0,0,256,256"><g fill="#ffff00" fill-rule="nonzero" stroke="none" stroke-width="1" stroke-linecap="butt" stroke-linejoin="miter" stroke-miterlimit="10" stroke-dasharray="" stroke-dashoffset="0" font-family="none" font-weight="none" font-size="none" text-anchor="none" style="mix-blend-mode: normal"><g transform="translate(-0.01209,-0.07733) scale(10.66667,10.66667)"><path d="M21.743,12.331l-9,-10c-0.379,-0.422 -1.107,-0.422 -1.486,0l-9,10c-0.26468,0.29339 -0.33134,0.71531 -0.17,1.076c0.16,0.361 0.518,0.593 0.913,0.593h2v7c0,0.55228 0.44772,1 1,1h3c0.55228,0 1,-0.44772 1,-1v-4h4v4c0,0.55228 0.44772,1 1,1h3c0.55228,0 1,-0.44772 1,-1v-7h2c0.39572,0.00169 0.75505,-0.23059 0.91599,-0.59211c0.16094,-0.36151 0.09308,-0.78397 -0.17299,-1.07689z"></path></g></g></svg>